<svg width="114" height="23" viewBox="0 0 114 23" fill="none" xmlns="http://www.w3.org/2000/svg">
<path d="M8.846 17.874C8.426 18.042 8.024 18.126 7.64 18.126C7.256 18.126 6.98 17.976 6.812 17.676C6.656 17.364 6.578 16.92 6.578 16.344C6.578 15.768 6.686 14.652 6.902 12.996C7.13 11.34 7.244 10.146 7.244 9.414C7.244 8.67 7.178 8.196 7.046 7.992C6.926 7.776 6.698 7.668 6.362 7.668C5.918 7.668 5.384 8.22 4.76 9.324C4.136 10.416 3.602 11.652 3.158 13.032C2.726 14.412 2.51 15.492 2.51 16.272C2.51 17.04 2.612 17.574 2.816 17.874C2.396 18.042 1.994 18.126 1.61 18.126C1.226 18.126 0.95 17.976 0.782 17.676C0.626 17.364 0.548 16.926 0.548 16.362C0.548 15.786 0.662 14.628 0.89 12.888C1.118 11.136 1.232 9.726 1.232 8.658C1.232 7.578 1.106 6.792 0.854 6.3C0.974 6.18 1.154 6.084 1.394 6.012C1.634 5.928 1.85 5.886 2.042 5.886C2.462 5.886 2.774 6.03 2.978 6.318C3.182 6.606 3.284 7.152 3.284 7.956C3.284 8.748 3.11 10.116 2.762 12.06C3.962 9.012 4.994 7.092 5.858 6.3C6.254 5.94 6.65 5.76 7.046 5.76C8.366 5.76 9.026 6.798 9.026 8.874C9.026 9.894 8.948 10.956 8.792 12.06C10.316 7.86 11.738 5.76 13.058 5.76C14.39 5.76 15.056 6.798 15.056 8.874C15.056 9.474 14.984 10.338 14.84 11.466C14.708 12.594 14.642 13.452 14.642 14.04C14.642 15.732 14.906 16.878 15.434 17.478C15.038 17.91 14.624 18.126 14.192 18.126C13.196 18.126 12.698 16.962 12.698 14.634C12.698 13.77 12.794 12.684 12.986 11.376C13.178 10.056 13.274 9.216 13.274 8.856C13.274 8.484 13.208 8.196 13.076 7.992C12.956 7.776 12.722 7.668 12.374 7.668C11.93 7.668 11.396 8.22 10.772 9.324C10.148 10.416 9.62 11.652 9.188 13.032C8.756 14.412 8.54 15.492 8.54 16.272C8.54 17.04 8.642 17.574 8.846 17.874ZM22.8216 7.038C22.2576 7.038 21.7656 7.254 21.3456 7.686C20.9376 8.106 20.6316 8.64 20.4276 9.288C20.0436 10.488 19.8516 11.706 19.8516 12.942C19.8516 14.166 20.1036 15.144 20.6076 15.876C21.1116 16.608 21.8136 16.974 22.7136 16.974C23.2896 16.974 23.7876 16.764 24.2076 16.344C24.6276 15.912 24.9396 15.372 25.1436 14.724C25.5276 13.488 25.7196 12.264 25.7196 11.052C25.7196 9.828 25.4616 8.856 24.9456 8.136C24.4416 7.404 23.7336 7.038 22.8216 7.038ZM21.8316 18.306C20.5836 18.306 19.6176 17.838 18.9336 16.902C18.2496 15.966 17.9076 14.778 17.9076 13.338C17.9076 12.462 18.0456 11.58 18.3216 10.692C18.5976 9.792 18.9756 8.97 19.4556 8.226C19.9356 7.47 20.5536 6.858 21.3096 6.39C22.0656 5.922 22.8816 5.688 23.7576 5.688C25.0056 5.688 25.9656 6.156 26.6376 7.092C27.3216 8.028 27.6636 9.216 27.6636 10.656C27.6636 12.132 27.3276 13.53 26.6556 14.85C25.9236 16.278 24.9816 17.28 23.8296 17.856C23.2056 18.156 22.5396 18.306 21.8316 18.306ZM34.4988 18.306C33.0468 18.306 31.9488 17.844 31.2048 16.92C30.4728 15.996 30.1068 14.802 30.1068 13.338C30.1068 12.462 30.2448 11.58 30.5208 10.692C30.7968 9.792 31.1748 8.97 31.6548 8.226C32.1348 7.47 32.7528 6.858 33.5088 6.39C34.2648 5.922 35.0808 5.688 35.9568 5.688C37.6248 5.688 38.4588 6.174 38.4588 7.146C38.4588 7.806 38.1888 8.358 37.6488 8.802C37.3608 8.238 37.0188 7.806 36.6228 7.506C36.2388 7.194 35.7708 7.038 35.2188 7.038C34.6668 7.038 34.1988 7.188 33.8148 7.488C33.4308 7.776 33.1308 8.136 32.9148 8.568C32.7108 8.988 32.5428 9.468 32.4108 10.008C32.1708 10.944 32.0508 11.844 32.0508 12.708C32.0508 14.1 32.2908 15.162 32.7708 15.894C33.2508 16.614 33.9408 16.974 34.8408 16.974C35.9688 16.974 36.7968 16.368 37.3248 15.156C37.5768 15.42 37.7028 15.756 37.7028 16.164C37.7028 16.836 37.3548 17.364 36.6588 17.748C35.9748 18.12 35.2548 18.306 34.4988 18.306ZM42.2249 17.874C41.8169 18.042 41.4149 18.126 41.0189 18.126C40.6349 18.126 40.3589 17.976 40.1909 17.676C40.0349 17.364 39.9569 16.872 39.9569 16.2C39.9569 15.528 40.2029 13.728 40.6949 10.8C41.5229 5.796 41.6429 2.706 41.0549 1.53C41.3429 1.266 41.7149 1.134 42.1709 1.134C42.6389 1.134 42.9749 1.278 43.1789 1.566C43.3829 1.854 43.4849 2.382 43.4849 3.15C43.4849 3.906 43.2809 5.436 42.8729 7.74C42.4769 10.044 42.2429 11.484 42.1709 12.06C43.4429 9.012 44.5349 7.092 45.4469 6.3C45.8669 5.94 46.2869 5.76 46.7069 5.76C48.0989 5.76 48.7949 6.798 48.7949 8.874C48.7949 9.474 48.7229 10.338 48.5789 11.466C48.4469 12.594 48.3809 13.452 48.3809 14.04C48.3809 15.732 48.6449 16.878 49.1729 17.478C48.7529 17.91 48.3329 18.126 47.9129 18.126C46.9169 18.126 46.4189 16.962 46.4189 14.634C46.4189 13.77 46.5149 12.684 46.7069 11.376C46.9109 10.056 47.0129 9.216 47.0129 8.856C47.0129 8.484 46.9409 8.196 46.7969 7.992C46.6529 7.776 46.4009 7.668 46.0409 7.668C45.5609 7.668 44.9849 8.22 44.3129 9.324C43.6409 10.416 43.0709 11.652 42.6029 13.032C42.1469 14.4 41.9189 15.474 41.9189 16.254C41.9189 17.034 42.0209 17.574 42.2249 17.874ZM54.286 18.252C53.47 18.252 52.822 17.85 52.342 17.046C51.874 16.242 51.64 15.138 51.64 13.734C51.64 11.478 52.144 9.576 53.152 8.028C54.172 6.468 55.426 5.688 56.914 5.688C57.934 5.688 58.78 6.09 59.452 6.894C59.548 6.522 59.668 6.258 59.812 6.102C59.968 5.946 60.202 5.868 60.514 5.868C60.838 5.868 61.138 6.024 61.414 6.336C61.198 6.912 61.012 7.878 60.856 9.234C60.7 10.59 60.622 11.856 60.622 13.032C60.622 14.196 60.682 15.102 60.802 15.75C60.934 16.386 61.15 16.956 61.45 17.46C61.102 17.904 60.694 18.126 60.226 18.126C59.194 18.126 58.678 16.86 58.678 14.328C58.678 13.92 58.726 13.206 58.822 12.186C58.198 13.926 57.454 15.372 56.59 16.524C55.738 17.676 54.97 18.252 54.286 18.252ZM56.986 6.93C55.966 6.93 55.132 7.524 54.484 8.712C53.848 9.9 53.53 11.424 53.53 13.284C53.53 14.232 53.65 14.982 53.89 15.534C54.142 16.074 54.478 16.344 54.898 16.344C55.33 16.344 55.87 15.876 56.518 14.94C57.178 14.004 57.778 12.864 58.318 11.52C58.858 10.164 59.188 8.946 59.308 7.866C58.492 7.242 57.718 6.93 56.986 6.93Z" fill="#C7A17A"/>
<path d="M74.3836 18.306C72.9316 18.306 71.8336 17.844 71.0896 16.92C70.3576 15.996 69.9916 14.802 69.9916 13.338C69.9916 12.462 70.1296 11.58 70.4056 10.692C70.6816 9.792 71.0596 8.97 71.5396 8.226C72.0196 7.47 72.6376 6.858 73.3936 6.39C74.1496 5.922 74.9656 5.688 75.8416 5.688C77.5096 5.688 78.3436 6.174 78.3436 7.146C78.3436 7.806 78.0736 8.358 77.5336 8.802C77.2456 8.238 76.9036 7.806 76.5076 7.506C76.1236 7.194 75.6556 7.038 75.1036 7.038C74.5516 7.038 74.0836 7.188 73.6996 7.488C73.3156 7.776 73.0156 8.136 72.7996 8.568C72.5956 8.988 72.4276 9.468 72.2956 10.008C72.0556 10.944 71.9356 11.844 71.9356 12.708C71.9356 14.1 72.1756 15.162 72.6556 15.894C73.1356 16.614 73.8256 16.974 74.7256 16.974C75.8536 16.974 76.6816 16.368 77.2096 15.156C77.4616 15.42 77.5876 15.756 77.5876 16.164C77.5876 16.836 77.2396 17.364 76.5436 17.748C75.8596 18.12 75.1396 18.306 74.3836 18.306ZM81.5157 18.126C80.5797 18.126 80.1117 17.334 80.1117 15.75C80.1117 15.09 80.2377 13.974 80.4897 12.402C80.7417 10.83 80.8677 9.54 80.8677 8.532C80.8677 7.524 80.7417 6.78 80.4897 6.3C80.7897 6.024 81.1557 5.886 81.5877 5.886C82.4637 5.886 82.9017 6.342 82.9017 7.254C82.9017 7.578 82.8237 8.244 82.6677 9.252C82.5237 10.26 82.4277 10.95 82.3797 11.322C83.0277 9.618 83.7537 8.256 84.5577 7.236C85.3737 6.204 86.0457 5.688 86.5737 5.688C86.8737 5.688 87.0957 5.832 87.2397 6.12C87.3957 6.408 87.4737 6.702 87.4737 7.002C87.4737 7.302 87.4377 7.608 87.3657 7.92C87.1857 7.884 87.0177 7.866 86.8617 7.866C86.0937 7.866 85.3197 8.316 84.5397 9.216C83.7717 10.116 83.1657 11.106 82.7217 12.186C82.2897 13.266 82.0737 14.16 82.0737 14.868C82.0737 16.116 82.3017 16.986 82.7577 17.478C82.3857 17.91 81.9717 18.126 81.5157 18.126ZM90.9013 18.252C90.0853 18.252 89.4373 17.85 88.9573 17.046C88.4893 16.242 88.2553 15.138 88.2553 13.734C88.2553 11.478 88.7593 9.576 89.7673 8.028C90.7873 6.468 92.0413 5.688 93.5293 5.688C94.5493 5.688 95.3953 6.09 96.0673 6.894C96.1633 6.522 96.2833 6.258 96.4273 6.102C96.5833 5.946 96.8173 5.868 97.1293 5.868C97.4533 5.868 97.7533 6.024 98.0293 6.336C97.8133 6.912 97.6273 7.878 97.4713 9.234C97.3153 10.59 97.2373 11.856 97.2373 13.032C97.2373 14.196 97.2973 15.102 97.4173 15.75C97.5493 16.386 97.7653 16.956 98.0653 17.46C97.7173 17.904 97.3093 18.126 96.8413 18.126C95.8093 18.126 95.2933 16.86 95.2933 14.328C95.2933 13.92 95.3413 13.206 95.4373 12.186C94.8133 13.926 94.0693 15.372 93.2053 16.524C92.3533 17.676 91.5853 18.252 90.9013 18.252ZM93.6013 6.93C92.5813 6.93 91.7473 7.524 91.0993 8.712C90.4633 9.9 90.1453 11.424 90.1453 13.284C90.1453 14.232 90.2653 14.982 90.5053 15.534C90.7573 16.074 91.0933 16.344 91.5133 16.344C91.9453 16.344 92.4853 15.876 93.1333 14.94C93.7933 14.004 94.3933 12.864 94.9333 11.52C95.4733 10.164 95.8033 8.946 95.9233 7.866C95.1073 7.242 94.3333 6.93 93.6013 6.93ZM110.135 18.27C109.403 18.27 108.821 18.078 108.389 17.694C107.969 17.298 107.759 16.704 107.759 15.912C107.759 15.12 107.813 14.298 107.921 13.446C108.029 12.582 108.173 11.604 108.353 10.512C108.545 9.42 108.671 8.634 108.731 8.154C106.535 8.154 104.915 8.178 103.871 8.226C103.187 12.894 102.845 16.452 102.845 18.9C102.845 20.028 103.073 20.85 103.529 21.366C103.169 21.798 102.755 22.014 102.287 22.014C101.351 22.014 100.883 21.234 100.883 19.674C100.883 18.126 101.285 14.358 102.089 8.37C101.177 8.478 100.511 8.688 100.091 9C100.091 8.652 100.109 8.388 100.145 8.208C100.181 8.016 100.265 7.812 100.397 7.596C100.649 7.188 101.285 6.948 102.305 6.876C102.629 5.1 103.235 3.612 104.123 2.412C105.011 1.2 106.133 0.593999 107.489 0.593999C108.077 0.593999 108.617 0.731999 109.109 1.008C109.601 1.284 109.847 1.614 109.847 1.998C109.847 2.382 109.385 2.742 108.461 3.078C108.173 2.31 107.681 1.926 106.985 1.926C106.289 1.926 105.695 2.304 105.203 3.06C104.723 3.804 104.351 5.058 104.087 6.822L108.875 6.696C108.899 6.312 108.911 5.916 108.911 5.508C108.911 5.1 108.845 4.674 108.713 4.23C108.833 4.134 109.013 4.05 109.253 3.978C109.505 3.894 109.721 3.852 109.901 3.852C110.285 3.852 110.537 3.984 110.657 4.248C110.777 4.512 110.837 4.878 110.837 5.346C110.837 5.802 110.807 6.24 110.747 6.66C112.223 6.636 113.201 6.462 113.681 6.138C113.585 6.93 113.315 7.458 112.871 7.722C112.439 7.974 111.653 8.112 110.513 8.136C110.465 8.592 110.381 9.168 110.261 9.864C110.141 10.56 110.045 11.196 109.973 11.772C109.901 12.348 109.847 12.816 109.811 13.176C109.715 14.136 109.667 15.006 109.667 15.786C109.667 16.182 109.751 16.476 109.919 16.668C110.099 16.86 110.327 16.956 110.603 16.956C110.891 16.956 111.197 16.836 111.521 16.596C111.845 16.344 112.103 16.032 112.295 15.66C112.511 15.924 112.619 16.206 112.619 16.506C112.619 16.974 112.385 17.388 111.917 17.748C111.461 18.096 110.867 18.27 110.135 18.27Z" fill="white"/>
</svg>
